<?xml version="1.0" encoding="iso-8859-1"?>
<!-- Uploaded to: SVG Repo, www.svgrepo.com, Generator: SVG Repo Mixer Tools -->
<svg version="1.1" id="Layer_1" xmlns="http://www.w3.org/2000/svg" xmlns:xlink="http://www.w3.org/1999/xlink" 
	 viewBox="0 0 508 508" xml:space="preserve">
<path style="fill:#F2F2F2;" d="M506,508H2c-1.1,0-2-0.9-2-2V169h508v337C508,507.1,507.1,508,506,508z"/>
<path style="fill:#54C0EB;" d="M486.8,56.4H21.2C9.5,56.4,0,65.9,0,77.6V169h508V77.6C508,65.9,498.5,56.4,486.8,56.4z"/>
<g>
	<rect x="36" y="218.7" style="fill:#CDD6E0;" width="71.5" height="71.5"/>
	<rect x="36" y="400.9" style="fill:#CDD6E0;" width="71.5" height="71.5"/>
	<rect x="36" y="309.8" style="fill:#CDD6E0;" width="71.5" height="71.5"/>
	<rect x="127.1" y="218.7" style="fill:#CDD6E0;" width="71.5" height="71.5"/>
	<rect x="127.1" y="400.9" style="fill:#CDD6E0;" width="71.5" height="71.5"/>
	<rect x="127.1" y="309.8" style="fill:#CDD6E0;" width="71.5" height="71.5"/>
	<rect x="218.2" y="218.7" style="fill:#CDD6E0;" width="71.5" height="71.5"/>
	<rect x="218.2" y="400.9" style="fill:#CDD6E0;" width="71.5" height="71.5"/>
	<rect x="218.2" y="309.8" style="fill:#CDD6E0;" width="71.5" height="71.5"/>
	<rect x="309.3" y="218.7" style="fill:#CDD6E0;" width="71.5" height="71.5"/>
	<rect x="309.3" y="400.9" style="fill:#CDD6E0;" width="71.5" height="71.5"/>
</g>
<rect x="309.3" y="309.8" style="fill:#FF7058;" width="71.5" height="71.5"/>
<g>
	<rect x="400.4" y="218.7" style="fill:#CDD6E0;" width="71.5" height="71.5"/>
	<rect x="400.4" y="400.9" style="fill:#CDD6E0;" width="71.5" height="71.5"/>
	<rect x="400.4" y="309.8" style="fill:#CDD6E0;" width="71.5" height="71.5"/>
</g>
<g>
	<path style="fill:#40596B;" d="M137,112.7H85.6c-1.5,0-2.7-1.2-2.7-2.7V2.7c0-1.5,1.2-2.7,2.7-2.7H137c1.5,0,2.7,1.2,2.7,2.7V110
		C139.6,111.5,138.4,112.7,137,112.7z"/>
	<path style="fill:#40596B;" d="M422.4,112.7H371c-1.5,0-2.7-1.2-2.7-2.7V2.7c0-1.5,1.2-2.7,2.7-2.7h51.4c1.5,0,2.7,1.2,2.7,2.7V110
		C425.1,111.5,423.9,112.7,422.4,112.7z"/>
</g>
</svg>