<svg width="116" height="34" viewBox="0 0 116 34" fill="none" xmlns="http://www.w3.org/2000/svg">
<path d="M1.16 33.5C1.04 33.5 0.98 33.38 0.98 33.14C0.98 32.876 1.04 32.636 1.16 32.42C1.28 32.204 1.484 31.952 1.772 31.664C2.324 31.16 2.684 30.8 2.852 30.584C3.02 30.344 3.14 30.044 3.212 29.684C3.308 29.3 3.464 28.508 3.68 27.308L5.876 14.492C5.972 13.892 6.38 13.292 7.1 12.692C7.844 12.092 8.504 11.792 9.08 11.792C9.344 11.792 9.476 11.852 9.476 11.972C9.476 12.044 9.356 12.248 9.116 12.584C8.9 12.92 8.732 13.484 8.612 14.276L7.532 21.152C7.868 21.224 8.396 21.26 9.116 21.26C10.268 21.26 11.288 20.996 12.176 20.468C13.088 19.916 13.796 19.172 14.3 18.236C14.804 17.3 15.056 16.256 15.056 15.104C15.056 13.472 14.552 12.236 13.544 11.396C12.536 10.532 11.096 10.1 9.224 10.1C7.784 10.1 6.452 10.364 5.228 10.892C4.004 11.42 2.924 12.212 1.988 13.268C1.772 13.556 1.604 13.76 1.484 13.88C1.364 13.976 1.232 14.024 1.088 14.024C0.944 14.024 0.872 13.94 0.872 13.772L0.908 13.376C1.124 12.488 1.664 11.648 2.528 10.856C3.392 10.04 4.508 9.392 5.876 8.912C7.244 8.408 8.744 8.156 10.376 8.156C12.656 8.156 14.48 8.672 15.848 9.704C17.216 10.712 17.9 12.116 17.9 13.916C17.9 15.5 17.372 16.988 16.316 18.38C15.26 19.748 13.892 20.876 12.212 21.764C10.556 22.628 8.84 23.132 7.064 23.276L6.02 29.54C5.9 30.164 5.672 30.668 5.336 31.052V31.088C5.456 31.136 5.636 31.208 5.876 31.304C6.116 31.376 6.356 31.412 6.596 31.412C6.884 31.412 7.172 31.352 7.46 31.232C7.772 31.088 7.976 31.016 8.072 31.016C8.216 31.016 8.288 31.1 8.288 31.268C8.288 31.484 8.144 31.736 7.856 32.024C6.944 33.008 6.212 33.5 5.66 33.5C5.444 33.5 5.048 33.404 4.472 33.212C3.704 32.996 3.2 32.888 2.96 32.888C2.6 32.888 2.228 32.996 1.844 33.212C1.46 33.404 1.232 33.5 1.16 33.5ZM20.3058 33.5C20.1618 33.5 20.0898 33.416 20.0898 33.248C20.0898 32.744 20.3658 32.252 20.9178 31.772C21.3258 31.388 21.6258 31.052 21.8178 30.764C22.0338 30.452 22.2138 30.044 22.3578 29.54C22.5258 29.012 22.6938 28.232 22.8618 27.2L25.5258 10.784H25.3818C24.2298 10.784 23.3538 10.904 22.7538 11.144C22.1778 11.384 21.7338 11.636 21.4218 11.9C21.1098 12.14 20.9178 12.26 20.8458 12.26C20.7018 12.26 20.6298 12.152 20.6298 11.936C20.6298 11.72 20.6658 11.54 20.7378 11.396C21.0018 10.556 21.6498 9.872 22.6818 9.344C23.7138 8.792 25.1298 8.516 26.9298 8.516C27.7698 8.516 28.8138 8.576 30.0618 8.696C31.9818 8.816 33.1338 8.876 33.5178 8.876C34.9098 8.876 35.9298 8.756 36.5778 8.516C37.2498 8.276 37.6338 8.156 37.7298 8.156C37.8258 8.156 37.8858 8.18 37.9098 8.228C37.9578 8.252 37.9818 8.312 37.9818 8.408C37.9818 8.696 37.7898 9.044 37.4058 9.452C37.0458 9.86 36.4818 10.22 35.7138 10.532C34.9458 10.844 33.9978 11 32.8698 11C32.4378 11 32.0178 10.988 31.6098 10.964C31.2258 10.94 30.8778 10.916 30.5658 10.892C29.4618 10.796 28.6818 10.748 28.2258 10.748L26.8218 19.424H33.5898C33.7818 19.424 33.8778 19.508 33.8778 19.676C33.8778 19.844 33.7218 20.132 33.4098 20.54C33.1218 20.924 32.7498 21.284 32.2938 21.62C31.8618 21.932 31.4418 22.088 31.0338 22.088C30.9138 22.088 30.6138 22.04 30.1338 21.944C29.2698 21.728 28.4658 21.62 27.7218 21.62H26.5338L25.3098 28.676C25.2618 29.084 25.1538 29.48 24.9858 29.864C24.8418 30.248 24.6858 30.536 24.5178 30.728V30.764C25.0218 30.908 25.6338 31.028 26.3538 31.124C27.0738 31.196 27.7458 31.232 28.3698 31.232C30.5058 31.232 32.4018 30.704 34.0578 29.648C34.1298 29.624 34.2018 29.588 34.2738 29.54C34.3698 29.492 34.4538 29.468 34.5258 29.468C34.6938 29.468 34.7778 29.588 34.7778 29.828C34.7778 30.332 34.4538 30.872 33.8058 31.448C33.1578 32.024 32.3298 32.516 31.3218 32.924C30.3138 33.308 29.2818 33.5 28.2258 33.5C27.5058 33.5 26.4018 33.38 24.9138 33.14C23.8098 32.972 23.0418 32.888 22.6098 32.888C22.1058 32.888 21.6258 32.996 21.1698 33.212C20.7138 33.404 20.4258 33.5 20.3058 33.5ZM44.5566 33.86C42.4686 33.86 40.8606 33.104 39.7326 31.592C38.6046 30.056 38.0406 27.776 38.0406 24.752C38.0406 21.344 38.7006 18.392 40.0206 15.896C41.3646 13.376 43.0326 11.456 45.0246 10.136C47.0406 8.816 49.0086 8.156 50.9286 8.156C52.1766 8.156 53.2686 8.408 54.2046 8.912C55.1646 9.392 55.6446 10.124 55.6446 11.108C55.6446 11.804 55.3686 12.572 54.8166 13.412C54.6726 13.604 54.5526 13.748 54.4566 13.844C54.3606 13.916 54.2406 13.952 54.0966 13.952C53.9286 13.952 53.8086 13.88 53.7366 13.736C53.6646 13.568 53.6166 13.376 53.5926 13.16C53.5686 12.944 53.5446 12.788 53.5206 12.692C53.3766 11.876 52.9926 11.24 52.3686 10.784C51.7686 10.304 50.9166 10.064 49.8126 10.064C47.8686 10.064 46.2366 10.808 44.9166 12.296C43.6206 13.76 42.6486 15.572 42.0006 17.732C41.3766 19.892 41.0646 21.992 41.0646 24.032C41.0646 26.36 41.4966 28.16 42.3606 29.432C43.2246 30.704 44.4486 31.34 46.0326 31.34C47.3286 31.34 48.5406 30.92 49.6686 30.08C50.8206 29.24 51.7806 28.04 52.5486 26.48C52.6926 26.216 52.8366 26.084 52.9806 26.084C53.1006 26.084 53.1606 26.216 53.1606 26.48C53.1606 26.624 53.1486 26.768 53.1246 26.912C53.1006 27.056 53.0766 27.164 53.0526 27.236C52.6926 28.508 52.0926 29.648 51.2526 30.656C50.4126 31.664 49.4046 32.456 48.2286 33.032C47.0526 33.584 45.8286 33.86 44.5566 33.86ZM61.2527 33.536C61.2047 33.536 61.1567 33.524 61.1087 33.5C61.0847 33.452 61.0727 33.392 61.0727 33.32C61.0727 33.128 61.1687 32.876 61.3607 32.564C61.5767 32.252 61.7807 32 61.9727 31.808C62.3807 31.448 62.6807 31.148 62.8727 30.908C63.0887 30.644 63.2807 30.272 63.4487 29.792C63.6167 29.312 63.7847 28.604 63.9527 27.668L66.8327 10.928H64.3847C62.6327 10.928 61.4207 11.132 60.7487 11.54C60.0767 11.924 59.7407 12.62 59.7407 13.628C59.7407 14.324 59.8487 14.9 60.0647 15.356C60.3047 15.788 60.4247 16.052 60.4247 16.148C60.4247 16.34 60.3047 16.64 60.0647 17.048C59.8247 17.456 59.5487 17.828 59.2367 18.164C58.9247 18.476 58.6727 18.632 58.4807 18.632C58.4087 18.632 58.3367 18.584 58.2647 18.488C58.0967 18.2 57.9527 17.816 57.8327 17.336C57.7367 16.856 57.6887 16.352 57.6887 15.824C57.6887 14.384 58.0487 13.112 58.7687 12.008C59.4887 10.904 60.5087 10.052 61.8287 9.452C63.1487 8.828 64.6847 8.516 66.4367 8.516H72.6287C73.8767 8.516 74.8367 8.432 75.5087 8.264C76.1807 8.072 76.6367 7.784 76.8767 7.4C77.1407 7.016 77.2727 6.5 77.2727 5.852C77.2727 5.132 77.1647 4.556 76.9487 4.124C76.7327 3.692 76.6247 3.44 76.6247 3.368C76.6247 3.2 76.7447 2.912 76.9847 2.504C77.2247 2.096 77.4887 1.724 77.7767 1.388C78.0887 1.052 78.3407 0.883999 78.5327 0.883999C78.6527 0.883999 78.7247 0.919999 78.7487 0.991998C79.1807 1.688 79.3967 2.624 79.3967 3.8C79.3967 5.216 79.0367 6.464 78.3167 7.544C77.5967 8.624 76.5647 9.464 75.2207 10.064C73.9007 10.64 72.3527 10.928 70.5767 10.928H69.4607L66.2927 29.468C66.2447 29.852 66.1607 30.164 66.0407 30.404C65.9207 30.62 65.7527 30.86 65.5367 31.124V31.196C65.9687 31.364 66.4487 31.448 66.9767 31.448C67.2887 31.448 67.5887 31.388 67.8767 31.268C68.1887 31.148 68.3927 31.088 68.4887 31.088C68.6327 31.088 68.7047 31.148 68.7047 31.268C68.7047 31.46 68.6087 31.664 68.4167 31.88C67.8887 32.48 67.4327 32.912 67.0487 33.176C66.6887 33.416 66.3527 33.536 66.0407 33.536C65.7767 33.536 65.3327 33.44 64.7087 33.248C64.0367 33.056 63.5687 32.96 63.3047 32.96C62.9687 32.96 62.5127 33.08 61.9367 33.32C61.5527 33.464 61.3247 33.536 61.2527 33.536ZM92.467 33.86C91.843 33.86 91.291 33.644 90.811 33.212C90.355 32.756 89.959 32.06 89.623 31.124L87.463 25.292C87.199 24.548 86.923 23.996 86.635 23.636C86.371 23.276 85.975 23.012 85.447 22.844C84.943 22.652 84.211 22.556 83.251 22.556L82.099 29.54C81.979 30.164 81.751 30.668 81.415 31.052V31.088C81.535 31.136 81.715 31.208 81.955 31.304C82.219 31.376 82.459 31.412 82.675 31.412C82.987 31.412 83.287 31.352 83.575 31.232C83.863 31.088 84.055 31.016 84.151 31.016C84.295 31.016 84.367 31.088 84.367 31.232C84.367 31.448 84.223 31.712 83.935 32.024C83.023 33.008 82.291 33.5 81.739 33.5C81.547 33.5 81.139 33.404 80.515 33.212C79.819 32.996 79.339 32.888 79.075 32.888C78.691 32.888 78.295 32.996 77.887 33.212C77.503 33.404 77.287 33.5 77.239 33.5C77.119 33.5 77.059 33.38 77.059 33.14C77.059 32.876 77.119 32.636 77.239 32.42C77.359 32.204 77.563 31.952 77.851 31.664C78.403 31.16 78.763 30.8 78.931 30.584C79.099 30.344 79.231 30.032 79.327 29.648C79.423 29.264 79.567 28.484 79.759 27.308L81.955 14.492C82.051 13.892 82.459 13.292 83.179 12.692C83.923 12.092 84.583 11.792 85.159 11.792C85.399 11.792 85.519 11.852 85.519 11.972C85.519 12.044 85.399 12.248 85.159 12.584C84.943 12.896 84.775 13.46 84.655 14.276L83.647 20.792C83.959 20.864 84.523 20.9 85.339 20.9C87.043 20.9 88.375 20.384 89.335 19.352C90.319 18.296 90.811 16.88 90.811 15.104C90.811 11.768 88.975 10.1 85.303 10.1C82.375 10.1 79.963 11.156 78.067 13.268C77.875 13.484 77.707 13.664 77.563 13.808C77.419 13.952 77.275 14.024 77.131 14.024C76.987 14.024 76.915 13.94 76.915 13.772C76.915 13.628 76.927 13.496 76.951 13.376C77.167 12.536 77.707 11.72 78.571 10.928C79.435 10.112 80.551 9.452 81.919 8.948C83.287 8.42 84.799 8.156 86.455 8.156C88.687 8.156 90.427 8.66 91.675 9.668C92.947 10.676 93.583 12.104 93.583 13.952C93.583 15.8 92.983 17.432 91.783 18.848C90.607 20.264 89.095 21.248 87.247 21.8C88.543 22.208 89.479 23.156 90.055 24.644L91.855 29.54C92.095 30.14 92.335 30.584 92.575 30.872C92.839 31.136 93.175 31.268 93.583 31.268C94.159 31.268 94.723 30.956 95.275 30.332C95.371 30.212 95.467 30.08 95.563 29.936C95.683 29.792 95.791 29.72 95.887 29.72C96.079 29.72 96.175 29.876 96.175 30.188C96.175 30.764 95.983 31.34 95.599 31.916C95.239 32.492 94.771 32.96 94.195 33.32C93.619 33.68 93.043 33.86 92.467 33.86ZM111.682 33.86C110.554 33.86 109.858 33.044 109.594 31.412C109.378 30.092 109.27 27.728 109.27 24.32L108.37 25.004H103.978C103.426 26.42 102.778 27.692 102.034 28.82C101.314 29.948 100.546 30.788 99.73 31.34V31.412C100.042 31.556 100.342 31.628 100.63 31.628C100.99 31.628 101.326 31.568 101.638 31.448C101.974 31.328 102.178 31.268 102.25 31.268C102.418 31.268 102.502 31.328 102.502 31.448C102.502 31.616 102.334 31.904 101.998 32.312C101.614 32.696 101.206 32.996 100.774 33.212C100.342 33.404 99.934 33.5 99.55 33.5C99.238 33.5 98.794 33.404 98.218 33.212C97.642 33.02 97.21 32.924 96.922 32.924C96.562 32.924 96.202 33.02 95.842 33.212C95.458 33.404 95.206 33.5 95.086 33.5C94.966 33.5 94.906 33.44 94.906 33.32C94.906 33.08 95.002 32.804 95.194 32.492C95.386 32.156 95.614 31.928 95.878 31.808C96.022 31.736 96.166 31.688 96.31 31.664C96.43 31.64 96.586 31.592 96.778 31.52C97.714 31.16 98.53 30.512 99.226 29.576C99.946 28.616 100.558 27.548 101.062 26.372C101.566 25.172 102.142 23.648 102.79 21.8C103.534 19.712 104.17 18.02 104.698 16.724C105.25 15.404 105.898 14.192 106.642 13.088C107.386 11.96 108.238 11.084 109.198 10.46V10.424C108.862 10.376 108.61 10.328 108.442 10.28C108.346 10.256 108.046 10.208 107.542 10.136C107.062 10.064 106.438 10.028 105.67 10.028C104.374 10.028 103.282 10.268 102.394 10.748C101.53 11.228 100.714 12.008 99.946 13.088C99.706 13.472 99.514 13.664 99.37 13.664C99.226 13.664 99.154 13.568 99.154 13.376L99.19 13.016C99.55 11.552 100.366 10.376 101.638 9.488C102.934 8.6 104.434 8.156 106.138 8.156C106.834 8.156 107.878 8.276 109.27 8.516C110.566 8.756 111.49 8.876 112.042 8.876C112.666 8.876 113.326 8.756 114.022 8.516V8.552C113.374 9.632 112.87 11.324 112.51 13.628C112.15 15.908 111.97 18.74 111.97 22.124C111.97 25.604 112.042 27.956 112.186 29.18C112.234 29.876 112.33 30.404 112.474 30.764C112.642 31.1 112.918 31.268 113.302 31.268C113.542 31.268 113.77 31.208 113.986 31.088C114.226 30.968 114.538 30.788 114.922 30.548C115.378 30.236 115.666 30.08 115.786 30.08C115.93 30.08 116.002 30.128 116.002 30.224C116.002 30.416 115.93 30.644 115.786 30.908C115.33 31.724 114.706 32.42 113.914 32.996C113.146 33.572 112.402 33.86 111.682 33.86ZM109.306 22.844C109.354 20.636 109.51 18.452 109.774 16.292C110.038 14.108 110.374 12.332 110.782 10.964H110.746C109.81 11.396 108.898 12.44 108.01 14.096C107.146 15.752 106.15 18.26 105.022 21.62L104.626 22.844H109.306Z" fill="#E7C4A2"/>
</svg>
