<svg width="36" height="40" viewBox="0 0 36 40" fill="none" xmlns="http://www.w3.org/2000/svg">
<path d="M10 0V5H15V5.15C6.5 6.35 0 13.7 0 22.5C0 32.15 7.85 40 17.5 40C27.15 40 35 32.15 35 22.5C35 20.25 34.5 18.15 33.75 16.25L29.2 18.15C29.75 19.6 30 21 30 22.55C30 29.5 24.45 35.05 17.5 35.05C10.55 35.05 5 29.5 5 22.55C5 15.6 10.55 10.05 17.5 10.05C19 10.05 20.45 10.3 21.9 10.85L23.6 6.15C22.45 5.75 21.25 5.55 20 5.35V5.05H25V0.05H10V0ZM35 5.8C35 5.8 16.75 19.85 15.8 20.8C14.85 21.8 14.85 23.25 15.8 24.25C16.75 25.25 18.25 25.25 19.25 24.25C20.25 23.25 35.05 5.8 35.05 5.8H35Z" fill="black"/>
</svg>
