<svg width="42" height="40" viewBox="0 0 42 40" fill="none" xmlns="http://www.w3.org/2000/svg">
<path d="M39.7308 13.3992L28.2957 11.7344L23.1855 1.39141C22.7261 0.467187 21.83 0 20.9339 0C20.0433 0 19.1535 0.460937 18.6925 1.39141L13.5808 11.7336L2.14488 13.3969C0.0940979 13.6937 -0.727777 16.2164 0.758942 17.6617L9.0316 25.7086L7.07379 37.0742C6.79566 38.6977 8.09176 40 9.54332 40C9.92847 40 10.3246 39.9086 10.705 39.707L20.9355 34.3414L31.1652 39.7086C31.5449 39.9078 31.9402 39.9984 32.3238 39.9984C33.7769 39.9984 35.0754 38.7008 34.7972 37.0766L32.8418 25.7102L41.116 17.6648C42.6035 16.2195 41.7816 13.6961 39.7308 13.3992ZM30.2199 23.0242L28.8043 24.4008L29.1386 26.3445L30.6636 35.2078L22.6847 31.0211L20.9363 30.1039L20.9386 5.32344L24.9254 13.393L25.7988 15.1609L27.7527 15.4453L36.6769 16.7445L30.2199 23.0242Z" fill="black"/>
</svg>
